<svg width="1200" height="900" viewBox="0 0 1200 900" fill="none" xmlns="http://www.w3.org/2000/svg">
  <rect width="1200" height="900" rx="40" fill="#F4FAF2"/>
  <circle cx="1020" cy="120" r="160" fill="#D9EEE6"/>
  <circle cx="178" cy="162" r="108" fill="#E8F5D8"/>
  <path d="M0 690C173 628 308 610 454 638C595 666 732 750 907 748C1032 746 1115 698 1200 640V900H0V690Z" fill="#DDEFD9"/>
  <path d="M0 760C153 736 313 716 476 742C672 774 866 852 1200 796V900H0V760Z" fill="#C7E2C4"/>

  <rect x="108" y="118" width="654" height="466" rx="28" fill="#FFFDF8" stroke="#D3E2CF" stroke-width="3"/>
  <rect x="150" y="160" width="174" height="18" rx="9" fill="#8AB98B"/>
  <rect x="150" y="198" width="266" height="12" rx="6" fill="#D2E7D4"/>
  <rect x="150" y="246" width="254" height="138" rx="22" fill="#EEF7EE"/>
  <rect x="430" y="246" width="290" height="64" rx="22" fill="#F6FBF5"/>
  <rect x="430" y="328" width="290" height="64" rx="22" fill="#F6FBF5"/>
  <rect x="150" y="416" width="570" height="126" rx="24" fill="#FCFFFB" stroke="#D6E6D4" stroke-dasharray="8 10"/>
  <path d="M188 458H360" stroke="#72A67C" stroke-width="14" stroke-linecap="round"/>
  <path d="M188 495H592" stroke="#B8D1B9" stroke-width="14" stroke-linecap="round"/>
  <path d="M188 530H510" stroke="#B8D1B9" stroke-width="14" stroke-linecap="round"/>

  <g filter="url(#shadowCard)">
    <rect x="812" y="182" width="264" height="334" rx="28" fill="#FFFDF9"/>
  </g>
  <rect x="846" y="218" width="90" height="90" rx="24" fill="#E8F4EC"/>
  <path d="M876 274C900 250 916 225 944 204" stroke="#7CAF7B" stroke-width="10" stroke-linecap="round"/>
  <path d="M902 290C913 262 939 246 973 240" stroke="#8EBFD0" stroke-width="10" stroke-linecap="round"/>
  <rect x="846" y="332" width="132" height="16" rx="8" fill="#6C9C73"/>
  <rect x="846" y="364" width="188" height="12" rx="6" fill="#D0E2D1"/>
  <rect x="846" y="392" width="170" height="12" rx="6" fill="#D0E2D1"/>
  <rect x="846" y="438" width="78" height="36" rx="18" fill="#DFF0E0"/>
  <rect x="934" y="438" width="102" height="36" rx="18" fill="#EAF5F7"/>

  <path d="M938 146C962 100 1020 74 1067 82C1106 88 1132 111 1148 144" stroke="#85B486" stroke-width="10" stroke-linecap="round"/>
  <path d="M932 146C952 162 987 172 1020 170C1061 168 1101 154 1132 129" stroke="#A8CEC4" stroke-width="10" stroke-linecap="round"/>

  <defs>
    <filter id="shadowCard" x="790" y="166" width="308" height="378" filterUnits="userSpaceOnUse" color-interpolation-filters="sRGB">
      <feFlood flood-opacity="0" result="BackgroundImageFix"/>
      <feColorMatrix in="SourceAlpha" type="matrix" values="0 0 0 0 0 0 0 0 0 0 0 0 0 0 0 0 0 0 127 0" result="hardAlpha"/>
      <feOffset dy="8"/>
      <feGaussianBlur stdDeviation="11"/>
      <feComposite in2="hardAlpha" operator="out"/>
      <feColorMatrix type="matrix" values="0 0 0 0 0.478431 0 0 0 0 0.643137 0 0 0 0 0.494118 0 0 0 0.18 0"/>
      <feBlend mode="normal" in2="BackgroundImageFix" result="effect1_dropShadow_0_1"/>
      <feBlend mode="normal" in="SourceGraphic" in2="effect1_dropShadow_0_1" result="shape"/>
    </filter>
  </defs>
</svg>
