<svg width="1200" height="720" viewBox="0 0 1200 720" fill="none" xmlns="http://www.w3.org/2000/svg">
  <rect width="1200" height="720" rx="28" fill="#F4FBF8"/>
  <rect x="82" y="86" width="232" height="118" rx="20" fill="#FFFFFF" stroke="#BFDCD7" stroke-width="3"/>
  <rect x="484" y="86" width="232" height="118" rx="20" fill="#FFFFFF" stroke="#BFDCD7" stroke-width="3"/>
  <rect x="886" y="86" width="232" height="118" rx="20" fill="#FFFFFF" stroke="#BFDCD7" stroke-width="3"/>
  <rect x="82" y="334" width="232" height="118" rx="20" fill="#FFFFFF" stroke="#BFDCD7" stroke-width="3"/>
  <rect x="484" y="334" width="232" height="118" rx="20" fill="#FFFFFF" stroke="#BFDCD7" stroke-width="3"/>
  <rect x="886" y="334" width="232" height="118" rx="20" fill="#FFFFFF" stroke="#BFDCD7" stroke-width="3"/>
  <rect x="330" y="146" width="140" height="10" rx="5" fill="#9FD6D3"/>
  <rect x="732" y="146" width="140" height="10" rx="5" fill="#9FD6D3"/>
  <rect x="330" y="394" width="140" height="10" rx="5" fill="#9FD6D3"/>
  <rect x="732" y="394" width="140" height="10" rx="5" fill="#9FD6D3"/>
  <path d="M315 145H468" stroke="#78C9C7" stroke-width="6" stroke-linecap="round"/>
  <path d="M717 145H870" stroke="#78C9C7" stroke-width="6" stroke-linecap="round"/>
  <path d="M315 393H468" stroke="#78C9C7" stroke-width="6" stroke-linecap="round"/>
  <path d="M717 393H870" stroke="#78C9C7" stroke-width="6" stroke-linecap="round"/>
  <path d="M197 211V320" stroke="#9CC4E2" stroke-width="6" stroke-linecap="round"/>
  <path d="M599 211V320" stroke="#9CC4E2" stroke-width="6" stroke-linecap="round"/>
  <path d="M1001 211V320" stroke="#9CC4E2" stroke-width="6" stroke-linecap="round"/>
  <rect x="122" y="118" width="152" height="18" rx="9" fill="#CDE9E4"/>
  <rect x="524" y="118" width="152" height="18" rx="9" fill="#CDE9E4"/>
  <rect x="926" y="118" width="152" height="18" rx="9" fill="#CDE9E4"/>
  <rect x="122" y="366" width="152" height="18" rx="9" fill="#CDE9E4"/>
  <rect x="524" y="366" width="152" height="18" rx="9" fill="#CDE9E4"/>
  <rect x="926" y="366" width="152" height="18" rx="9" fill="#CDE9E4"/>
  <rect x="138" y="150" width="120" height="12" rx="6" fill="#E4F4F0"/>
  <rect x="540" y="150" width="120" height="12" rx="6" fill="#E4F4F0"/>
  <rect x="942" y="150" width="120" height="12" rx="6" fill="#E4F4F0"/>
  <rect x="138" y="398" width="120" height="12" rx="6" fill="#E4F4F0"/>
  <rect x="540" y="398" width="120" height="12" rx="6" fill="#E4F4F0"/>
  <rect x="942" y="398" width="120" height="12" rx="6" fill="#E4F4F0"/>
  <rect x="366" y="534" width="468" height="108" rx="24" fill="#FFFFFF" stroke="#BFDCD7" stroke-width="3"/>
  <rect x="416" y="566" width="366" height="20" rx="10" fill="#BCE0DB"/>
  <rect x="416" y="602" width="300" height="16" rx="8" fill="#DDEFEA"/>
</svg>
