<svg width="960" height="560" viewBox="0 0 960 560" fill="none" xmlns="http://www.w3.org/2000/svg">
  <rect width="960" height="560" rx="28" fill="#F7FCFB"/>
  <rect x="72" y="58" width="816" height="62" rx="18" fill="#E7F4F2"/>
  <rect x="104" y="80" width="168" height="16" rx="8" fill="#A8D9D2"/>
  <rect x="72" y="152" width="250" height="336" rx="22" fill="#FFFFFF" stroke="#D5ECE7" stroke-width="3"/>
  <rect x="356" y="152" width="250" height="336" rx="22" fill="#FFFFFF" stroke="#D5ECE7" stroke-width="3"/>
  <rect x="640" y="152" width="248" height="336" rx="22" fill="#FFFFFF" stroke="#D5ECE7" stroke-width="3"/>
  <rect x="100" y="188" width="154" height="18" rx="9" fill="#BDE2DB"/>
  <rect x="100" y="224" width="184" height="14" rx="7" fill="#D8EFEB"/>
  <rect x="100" y="252" width="170" height="14" rx="7" fill="#D8EFEB"/>
  <rect x="100" y="292" width="194" height="92" rx="16" fill="#EDF8F6"/>
  <rect x="388" y="188" width="154" height="18" rx="9" fill="#BDE2DB"/>
  <rect x="388" y="224" width="184" height="14" rx="7" fill="#D8EFEB"/>
  <rect x="388" y="252" width="170" height="14" rx="7" fill="#D8EFEB"/>
  <rect x="388" y="292" width="194" height="92" rx="16" fill="#EDF8F6"/>
  <rect x="672" y="188" width="154" height="18" rx="9" fill="#BDE2DB"/>
  <rect x="672" y="224" width="184" height="14" rx="7" fill="#D8EFEB"/>
  <rect x="672" y="252" width="170" height="14" rx="7" fill="#D8EFEB"/>
  <rect x="672" y="292" width="194" height="92" rx="16" fill="#EDF8F6"/>
</svg>
