<svg width="960" height="620" viewBox="0 0 960 620" fill="none" xmlns="http://www.w3.org/2000/svg">
  <rect width="960" height="620" rx="36" fill="#F3FAF8"/>
  <circle cx="760" cy="126" r="48" fill="#C9EAE2"/>
  <rect x="114" y="138" width="264" height="156" rx="28" fill="#F9FDFC" stroke="#CDE8E2" stroke-width="4"/>
  <rect x="154" y="182" width="128" height="20" rx="10" fill="#B7DED8"/>
  <rect x="154" y="220" width="182" height="18" rx="9" fill="#D5ECE7"/>
  <rect x="154" y="254" width="162" height="18" rx="9" fill="#D5ECE7"/>
  <rect x="566" y="184" width="222" height="170" rx="28" fill="#F9FDFC" stroke="#CDE8E2" stroke-width="4"/>
  <path d="M620 314C650 256 694 220 728 220C762 220 806 256 836 314" stroke="#74C9C6" stroke-width="18" stroke-linecap="round"/>
  <circle cx="728" cy="220" r="24" fill="#A9D9E6"/>
  <path d="M0 480C132 428 238 414 338 446C438 478 512 560 642 544C740 532 836 474 960 438V620H0V480Z" fill="#D8EFEB"/>
  <path d="M0 504C136 458 250 452 344 476C440 500 528 568 642 560C760 550 858 490 960 466V620H0V504Z" fill="#C4E3E2"/>
  <path d="M0 536C142 506 254 502 362 524C466 546 552 588 654 580C788 570 872 548 960 534V620H0V536Z" fill="#A8D1E3"/>
</svg>
