<svg width="800" height="520" viewBox="0 0 800 520" fill="none" xmlns="http://www.w3.org/2000/svg">
  <rect width="800" height="520" rx="32" fill="#F7FCFB"/>
  <circle cx="625" cy="100" r="42" fill="#D5F0E8"/>
  <path d="M0 360C87 330 151 308 226 319C321 333 356 407 453 414C552 421 626 360 800 314V520H0V360Z" fill="#DFF3EE"/>
  <path d="M0 390C91 356 149 361 229 374C321 389 394 452 488 450C588 448 660 394 800 364V520H0V390Z" fill="#CBE9E3"/>
  <path d="M0 428C86 419 159 401 235 402C323 403 383 451 469 451C588 450 684 420 800 421V520H0V428Z" fill="#B8DFED"/>
  <rect x="92" y="104" width="210" height="126" rx="22" fill="white" stroke="#CBE9E3"/>
  <rect x="118" y="132" width="112" height="16" rx="8" fill="#CBE9E3"/>
  <rect x="118" y="162" width="152" height="12" rx="6" fill="#E5F5F1"/>
  <rect x="118" y="184" width="132" height="12" rx="6" fill="#E5F5F1"/>
  <rect x="460" y="160" width="176" height="112" rx="20" fill="white" stroke="#CBE9E3"/>
  <path d="M498 246C520 212 538 192 558 192C579 192 594 212 619 246" stroke="#7FC7BC" stroke-width="14" stroke-linecap="round"/>
  <circle cx="560" cy="190" r="18" fill="#B8DFED"/>
</svg>
